<?xml version="1.0" encoding="utf-8"?>
<!-- Generator: Adobe Illustrator 16.0.4, SVG Export Plug-In . SVG Version: 6.00 Build 0)  -->
<!DOCTYPE svg PUBLIC "-//W3C//DTD SVG 1.1//EN" "http://www.w3.org/Graphics/SVG/1.1/DTD/svg11.dtd">
<svg version="1.1" id="Capa_1" xmlns="http://www.w3.org/2000/svg" xmlns:xlink="http://www.w3.org/1999/xlink" x="0px" y="0px"
	 width="459px" height="459px" viewBox="0 0 459 459" enable-background="new 0 0 459 459" xml:space="preserve">
<g>
	<g id="group">
		<path d="M313.486,196.753c35.271,0,62.241-26.97,62.241-62.24c0-35.269-26.97-62.24-62.241-62.24
			c-35.269,0-62.239,26.972-62.239,62.24C251.247,169.782,278.218,196.753,313.486,196.753z M147.512,196.753
			c35.27,0,62.24-26.97,62.24-62.24c0-35.269-26.97-62.24-62.24-62.24c-35.269,0-62.24,26.972-62.24,62.24
			C85.273,169.782,112.243,196.753,147.512,196.753z M147.512,238.247c-47.717,0-145.227,24.896-145.227,72.613v51.867H292.74
			V310.86C292.74,263.143,195.231,238.247,147.512,238.247z M313.486,238.247c-6.224,0-12.447,0-20.746,2.075
			c24.896,16.597,41.493,41.493,41.493,70.538v51.867h124.48V310.86C458.714,263.143,361.205,238.247,313.486,238.247z"/>
	</g>
</g>
</svg>
